<svg width="276" height="276" viewBox="0 0 276 276" fill="none" xmlns="http://www.w3.org/2000/svg">
<g clip-path="url(#clip0_1_2)">
<path d="M218.25 31H57.75C42.9764 31 31 42.9764 31 57.75V218.25C31 233.024 42.9764 245 57.75 245H218.25C233.024 245 245 233.024 245 218.25V57.75C245 42.9764 233.024 31 218.25 31Z" fill="#DFF786"/>
<path d="M207.55 175.038C207.55 157.082 192.982 142.527 175.013 142.527C157.044 142.527 142.477 157.082 142.477 175.038C142.477 192.994 157.044 207.55 175.013 207.55C192.982 207.55 207.55 192.994 207.55 175.038Z" fill="#010101"/>
<path d="M68.4496 115.335V199.614C68.4496 203.998 72.0042 207.55 76.3907 207.55H125.777C130.164 207.55 133.719 203.998 133.719 199.614V91.4389C133.719 87.2521 135.02 85.3475 138.151 85.3475C141.282 85.3475 142.325 87.2521 142.325 91.4389V130.54C142.325 134.727 145.033 138.113 149.42 138.113H199.593C203.98 138.113 207.534 134.576 207.534 130.193V100.477C207.534 82.7933 193.18 68.4496 175.482 68.4496H115.386C89.4599 68.4496 68.4496 89.4438 68.4496 115.35V115.335Z" fill="#010101"/>
</g>
<defs>
<clipPath id="clip0_1_2">
<rect width="214" height="214" fill="white" transform="translate(31 31)"/>
</clipPath>
</defs>
</svg>
